# Blender v2.81 (sub 16) OBJ File: 'estrutura.blend'
# www.blender.org
mtllib parede_7.mtl
o parede_7_Cube.002
v 0.306105 0.017805 7.035731
v 0.306105 4.017805 7.035731
v 0.306105 0.017805 6.835731
v 0.306105 4.017805 6.835731
v 5.309895 0.017805 7.035731
v 5.309895 4.017805 7.035731
v 5.309895 0.017805 6.835731
v 5.309895 4.017805 6.835731
v 5.309895 2.817805 7.035731
v 5.309895 2.817805 6.835731
v 0.306105 2.817805 6.835731
v 0.306105 2.817805 7.035731
v 2.058171 0.017805 6.835731
v 3.561136 0.017805 6.835731
v 3.561136 4.017805 6.835731
v 2.058171 4.017805 6.835731
v 3.561136 0.017805 7.035731
v 2.058171 0.017805 7.035731
v 2.058171 4.017805 7.035731
v 3.561136 4.017805 7.035731
v 2.058171 2.817805 7.035731
v 3.561136 2.817805 7.035731
v 3.561136 2.817805 6.835731
v 2.058171 2.817805 6.835731
vt 0.550000 0.000000
vt 0.625000 0.000000
vt 0.625000 0.250000
vt 0.550000 0.250000
vt 0.625000 0.500000
vt 0.712372 0.500000
vt 0.712372 0.750000
vt 0.625000 0.750000
vt 0.550000 0.500000
vt 0.550000 0.750000
vt 0.375000 0.250000
vt 0.550000 0.337537
vt 0.375000 0.337537
vt 0.125000 0.500000
vt 0.212537 0.500000
vt 0.212537 0.750000
vt 0.125000 0.750000
vt 0.625000 0.837372
vt 0.550000 0.837372
vt 0.787463 0.500000
vt 0.875000 0.500000
vt 0.875000 0.750000
vt 0.787463 0.750000
vt 0.550000 0.412628
vt 0.625000 0.412628
vt 0.550000 0.912463
vt 0.625000 0.912463
vt 0.625000 1.000000
vt 0.550000 1.000000
vt 0.287628 0.500000
vt 0.375000 0.500000
vt 0.375000 0.750000
vt 0.287628 0.750000
vt 0.375000 0.837372
vt 0.375000 0.412628
vt 0.625000 0.337537
vt 0.375000 0.912463
vt 0.375000 1.000000
vt 0.375000 0.000000
vn -1.0000 0.0000 0.0000
vn 0.0000 1.0000 0.0000
vn 1.0000 0.0000 0.0000
vn 0.0000 0.0000 -1.0000
vn 0.0000 -1.0000 0.0000
vn 0.0000 0.0000 1.0000
usemtl paredes
s off
f 12/1/1 2/2/1 4/3/1 11/4/1
f 8/5/2 15/6/2 20/7/2 6/8/2
f 10/9/3 8/5/3 6/8/3 9/10/3
f 3/11/4 11/4/4 24/12/4 13/13/4
f 3/14/5 13/15/5 18/16/5 1/17/5
f 9/10/6 6/8/6 20/18/6 22/19/6
f 16/20/2 4/21/2 2/22/2 19/23/2
f 23/24/4 15/25/4 8/5/4 10/9/4
f 21/26/6 19/27/6 2/28/6 12/29/6
f 14/30/5 7/31/5 5/32/5 17/33/5
f 16/20/2 19/23/2 20/7/2 15/6/2
f 22/19/5 21/26/5 24/12/5 23/24/5
f 17/34/1 22/19/1 23/24/1 14/35/1
f 11/4/4 4/3/4 16/36/4 24/12/4
f 15/25/4 23/24/4 24/12/4 16/36/4
f 19/27/6 21/26/6 22/19/6 20/18/6
f 18/37/6 21/26/6 12/29/6 1/38/6
f 14/35/4 23/24/4 10/9/4 7/31/4
f 5/32/6 9/10/6 22/19/6 17/34/6
f 7/31/3 10/9/3 9/10/3 5/32/3
f 1/39/1 12/1/1 11/4/1 3/11/1
f 21/26/3 18/37/3 13/13/3 24/12/3
