# Blender v2.81 (sub 16) OBJ File: 'apartamento.blend'
# www.blender.org
mtllib fogao.mtl
o fogao_fogao_Cube_Cube.001
v -5.269832 1.323267 -3.061358
v -5.269831 1.323268 -1.755895
v -5.269831 0.017806 -1.755895
v -5.269832 0.017805 -3.061358
v -7.880757 1.323268 -1.755895
v -7.880758 1.323267 -3.061357
v -7.880758 0.017805 -3.061357
v -7.880757 0.017806 -1.755895
v -5.857398 0.017805 -3.061358
v -5.833895 0.091133 -3.061358
v -5.305086 0.091133 -3.061358
v -7.293190 1.323267 -2.277663
v -5.857398 1.323267 -2.277663
v -5.857398 1.073309 -2.277663
v -7.293190 1.073309 -2.277663
v -7.293190 1.323267 -3.061358
v -7.293190 1.073309 -3.061357
v -5.857398 1.073309 -3.061358
v -5.857398 1.323267 -3.061358
v -7.293190 0.017805 -3.061357
v -7.306488 1.115758 -3.074804
v -5.844100 1.115758 -3.074804
v -5.844100 1.044956 -3.074804
v -7.306488 1.044956 -3.074804
v -7.306489 1.115758 -2.274045
v -5.844100 1.115758 -2.274044
v -7.891658 1.379452 -1.734182
v -7.276857 1.379451 -2.304723
v -7.276858 1.379450 -3.074804
v -7.891659 1.379450 -3.074803
v -5.873731 1.379451 -2.304722
v -5.873731 1.308649 -2.304722
v -7.276857 1.308649 -2.304723
v -5.258930 1.379452 -1.734182
v -5.258930 1.308650 -1.734182
v -7.891658 1.308650 -1.734182
v -5.258931 1.379450 -3.074804
v -5.873731 1.379450 -3.074804
v -7.276858 1.308649 -3.074804
v -7.891659 1.308649 -3.074803
v -5.873731 1.308649 -3.074804
v -5.258931 1.308649 -3.074804
v -6.853387 1.115758 -2.985704
v -7.109507 1.115758 -2.732339
v -7.109507 1.132466 -2.732339
v -6.853387 1.132466 -2.985704
v -6.041081 1.115758 -2.732339
v -6.297202 1.115758 -2.985704
v -6.297202 1.132466 -2.985704
v -6.041081 1.132466 -2.732339
v -6.080192 1.132466 -2.572787
v -6.080192 1.115758 -2.572787
v -7.070397 1.115758 -2.572787
v -7.070397 1.132466 -2.572787
v -6.980772 1.132466 -2.464840
v -6.980772 1.115758 -2.464840
v -6.811869 1.115758 -2.390030
v -6.811869 1.132466 -2.390030
v -6.169817 1.132466 -2.464840
v -6.169817 1.115758 -2.464840
v -6.338719 1.115758 -2.390030
v -6.338719 1.132466 -2.390030
v -6.495068 1.132466 -2.355215
v -6.495068 1.115758 -2.355215
v -6.655520 1.115758 -2.355215
v -6.655520 1.132466 -2.355215
v -5.833895 1.294709 -3.061358
v -7.316694 0.091133 -3.061357
v -7.316694 1.294709 -3.061358
v -5.305086 1.294709 -3.061358
v -5.305086 1.294709 -2.277663
v -5.833896 1.294709 -2.277663
v -7.845504 1.294709 -3.061357
v -7.845504 0.091133 -3.061357
v -7.845503 0.091133 -2.277663
v -7.316693 0.091133 -2.277662
v -5.833896 0.091133 -2.277663
v -5.305086 0.091133 -2.277663
v -7.316693 1.294709 -2.277663
v -7.845503 1.294709 -2.277663
v -5.956863 0.948100 -3.138530
v -5.956863 0.948100 -3.109715
v -5.956863 0.919285 -3.109715
v -5.956863 0.919285 -3.138530
v -7.193726 0.948100 -3.109715
v -7.193726 0.919285 -3.109715
v -7.193726 0.948100 -3.138531
v -7.193726 0.919285 -3.138531
v -6.953958 0.943906 -3.116723
v -6.953958 0.943906 -3.059515
v -6.953958 0.923481 -3.059515
v -6.953958 0.923481 -3.116723
v -6.973808 0.943906 -3.059515
v -6.973808 0.943906 -3.116723
v -6.973808 0.923481 -3.116723
v -6.973808 0.923481 -3.059515
v -6.176781 0.943906 -3.116723
v -6.176781 0.943906 -3.059515
v -6.176781 0.923481 -3.059515
v -6.176781 0.923481 -3.116723
v -6.196630 0.943906 -3.059515
v -6.196630 0.943906 -3.116723
v -6.196630 0.923481 -3.116723
v -6.196630 0.923481 -3.059515
v -7.845504 0.949618 -3.036772
v -7.316694 0.949618 -3.036773
v -7.316694 0.913466 -3.036773
v -7.845504 0.913466 -3.036772
v -7.316693 0.913466 -2.277663
v -7.845503 0.913466 -2.277663
v -7.845503 0.949618 -2.277663
v -7.316693 0.949618 -2.277663
v -7.845504 0.452954 -3.036772
v -7.316694 0.452954 -3.036772
v -7.316694 0.416802 -3.036772
v -7.845504 0.416802 -3.036772
v -7.316693 0.416802 -2.277663
v -7.845503 0.416802 -2.277663
v -7.845503 0.452954 -2.277663
v -7.316693 0.452954 -2.277663
v -5.833895 0.949618 -3.036773
v -5.305086 0.949618 -3.036772
v -5.305086 0.913466 -3.036772
v -5.833895 0.913466 -3.036773
v -5.305086 0.913466 -2.277663
v -5.833896 0.913466 -2.277663
v -5.833896 0.949618 -2.277663
v -5.305086 0.949618 -2.277663
v -5.833895 0.452954 -3.036773
v -5.305086 0.452954 -3.036772
v -5.305086 0.416802 -3.036772
v -5.833895 0.416802 -3.036773
v -5.305086 0.416802 -2.277663
v -5.833896 0.416802 -2.277663
v -5.833896 0.452954 -2.277663
v -5.305086 0.452954 -2.277663
vt 0.031020 0.250685
vt 0.211012 0.250685
vt 0.211012 0.483430
vt 0.031020 0.483430
vt 0.570997 0.250685
vt 0.750990 0.250685
vt 0.750990 0.483430
vt 0.570997 0.483430
vt 0.013879 0.245955
vt 0.129745 0.245955
vt 0.125110 0.259380
vt 0.020831 0.259380
vt 0.452123 0.382574
vt 0.276286 0.382574
vt 0.276286 0.351689
vt 0.452123 0.351689
vt 0.600282 0.382574
vt 0.600282 0.351689
vt 0.138527 0.351689
vt 0.138527 0.382574
vt 0.412885 0.245954
vt 0.412886 0.439214
vt 0.129745 0.439214
vt 0.391195 0.459697
vt 0.391195 0.268197
vt 0.774194 0.268197
vt 0.774194 0.459697
vt 0.688004 0.459697
vt 0.477386 0.459697
vt 0.914089 0.788361
vt 0.816852 0.778715
vt 0.785703 0.709423
vt 0.948495 0.709423
vt 0.334771 0.073922
vt 0.118285 0.073922
vt 0.118285 0.063441
vt 0.334771 0.063440
vt 0.334771 0.192463
vt 0.118285 0.192463
vt 0.491792 0.227689
vt 0.370052 0.133289
vt 0.370052 0.023479
vt 0.491792 0.023479
vt 0.129025 0.133289
vt 0.141087 0.117925
vt 0.357912 0.117925
vt 0.016803 0.228046
vt 0.001128 0.240940
vt 0.504511 0.240940
vt 0.016803 0.023479
vt 0.129025 0.023479
vt 0.357912 0.011640
vt 0.504511 0.011640
vt 0.141087 0.011640
vt 0.001128 0.011640
vt 0.258775 0.784850
vt 0.280061 0.784850
vt 0.280061 0.785837
vt 0.258775 0.785837
vt 0.366292 0.784850
vt 0.387577 0.784850
vt 0.387577 0.785837
vt 0.366292 0.785837
vt 0.406735 0.792786
vt 0.459874 0.792786
vt 0.459874 0.794382
vt 0.406735 0.794382
vt 0.356586 0.785837
vt 0.356586 0.784850
vt 0.289767 0.784850
vt 0.289767 0.785837
vt 0.298057 0.785837
vt 0.298057 0.784850
vt 0.308972 0.784850
vt 0.308972 0.785837
vt 0.348296 0.785837
vt 0.348296 0.784850
vt 0.337381 0.784850
vt 0.337381 0.785837
vt 0.327917 0.785837
vt 0.327917 0.784850
vt 0.318436 0.784850
vt 0.318436 0.785837
vt 0.164549 0.733249
vt 0.467061 0.733249
vt 0.616544 0.849809
vt 0.565797 0.908253
vt 0.511542 0.943011
vt 0.436338 0.977500
vt 0.354393 0.992181
vt 0.262296 0.991418
vt 0.181352 0.974446
vt 0.102068 0.943011
vt 0.051813 0.903672
vt 0.008065 0.851335
vt 0.125111 0.479751
vt 0.417520 0.259380
vt 0.417521 0.479750
vt 0.854691 0.261372
vt 0.854691 0.474185
vt 0.765887 0.406647
vt 0.765887 0.320355
vt 0.528751 0.245953
vt 0.528753 0.484979
vt 0.521801 0.479750
vt 0.521800 0.259379
vt 0.540256 0.474185
vt 0.540256 0.261372
vt 0.613332 0.320355
vt 0.613332 0.406647
vt 0.540256 0.474185
vt 0.540256 0.261372
vt 0.613332 0.320355
vt 0.613332 0.406647
vt 0.013880 0.484981
vt 0.020832 0.479752
vt 0.129745 0.484980
vt 0.854691 0.261372
vt 0.854691 0.474185
vt 0.765887 0.406647
vt 0.765887 0.320355
vt 0.412886 0.484979
vt 0.412379 0.549820
vt 0.433419 0.549820
vt 0.433419 0.570860
vt 0.412379 0.570860
vt 0.070607 0.608315
vt 0.503675 0.608315
vt 0.503675 0.618405
vt 0.070607 0.618406
vt 0.504311 0.534505
vt 0.492970 0.534505
vt 0.492970 0.523164
vt 0.504311 0.523164
vt 0.503675 0.638585
vt 0.070607 0.638584
vt 0.070607 0.628495
vt 0.503675 0.628495
vt 0.503675 0.648674
vt 0.070607 0.648674
vt 0.568432 0.638907
vt 0.592876 0.638907
vt 0.592876 0.647634
vt 0.568432 0.647634
vt 0.592876 0.664843
vt 0.568432 0.664843
vt 0.568432 0.656116
vt 0.592876 0.656116
vt 0.592876 0.630425
vt 0.568432 0.630425
vt 0.566418 0.581528
vt 0.594909 0.581528
vt 0.594909 0.591701
vt 0.566418 0.591701
vt 0.594909 0.611760
vt 0.566418 0.611760
vt 0.566418 0.601588
vt 0.594909 0.601588
vt 0.594909 0.621646
vt 0.566418 0.621646
vt 0.485561 0.415691
vt 0.485561 0.365166
vt 0.489015 0.365166
vt 0.489015 0.415691
vt 0.561542 0.365166
vt 0.561542 0.415691
vt 0.413033 0.415691
vt 0.413033 0.365166
vt 0.485561 0.415691
vt 0.485561 0.365166
vt 0.489015 0.365166
vt 0.489015 0.415691
vt 0.561542 0.365166
vt 0.561542 0.415691
vt 0.413033 0.415691
vt 0.413033 0.365166
vt 0.485561 0.415691
vt 0.485561 0.365166
vt 0.489015 0.365166
vt 0.489015 0.415691
vt 0.561542 0.365166
vt 0.561542 0.415691
vt 0.413033 0.415691
vt 0.413033 0.365166
vt 0.485561 0.415691
vt 0.485561 0.365166
vt 0.489015 0.365166
vt 0.489015 0.415691
vt 0.561542 0.365166
vt 0.561542 0.415691
vt 0.413033 0.415691
vt 0.413033 0.365166
vn 1.0000 0.0000 -0.0000
vn -1.0000 0.0000 0.0000
vn 0.0000 -0.0000 -1.0000
vn -0.0000 0.0000 1.0000
vn 0.0000 -1.0000 0.0000
vn -0.0000 1.0000 -0.0000
vn -0.7033 0.0000 -0.7109
vn 0.7033 0.0000 -0.7109
vn 0.9712 0.0000 0.2381
vn -0.9712 0.0000 0.2381
vn -0.4050 0.0000 0.9143
vn 0.7694 0.0000 0.6388
vn -0.7694 0.0000 0.6388
vn 0.2174 0.0000 0.9761
vn 0.4050 0.0000 0.9143
vn -0.2174 0.0000 0.9761
usemtl Material.004
s 1
f 1/1/1 2/2/1 3/3/1 4/4/1
f 5/5/2 6/6/2 7/7/2 8/8/2
f 4/9/3 9/10/3 10/11/3 11/12/3
f 12/13/3 13/14/3 14/15/3 15/16/3
f 16/17/1 12/13/1 15/16/1 17/18/1
f 18/19/2 14/15/2 13/14/2 19/20/2
f 9/10/3 20/21/3 17/22/3 18/23/3
f 2/2/4 5/5/4 8/8/4 3/3/4
f 4/24/5 3/25/5 8/26/5 7/27/5 20/28/5 9/29/5
f 15/30/6 14/31/6 18/32/6 17/33/6
f 21/34/3 22/35/3 23/36/3 24/37/3
f 21/34/6 25/38/6 26/39/6 22/35/6
f 27/40/6 28/41/6 29/42/6 30/43/6
f 28/41/3 31/44/3 32/45/3 33/46/3
f 28/41/6 27/40/6 34/47/6 31/44/6
f 35/48/4 34/47/4 27/40/4 36/49/4
f 31/44/6 34/47/6 37/50/6 38/51/6
f 29/42/3 39/52/3 40/53/3 30/43/3
f 41/54/3 38/51/3 37/50/3 42/55/3
f 28/41/1 33/46/1 39/52/1 29/42/1
f 34/47/1 35/48/1 42/55/1 37/50/1
f 36/49/2 27/40/2 30/43/2 40/53/2
f 32/45/2 31/44/2 38/51/2 41/54/2
f 43/56/7 44/57/7 45/58/7 46/59/7
f 47/60/8 48/61/8 49/62/8 50/63/8
f 48/64/3 43/65/3 46/66/3 49/67/3
f 47/60/9 50/63/9 51/68/9 52/69/9
f 45/58/10 44/57/10 53/70/10 54/71/10
f 55/72/11 56/73/11 57/74/11 58/75/11
f 52/69/12 51/68/12 59/76/12 60/77/12
f 54/71/13 53/70/13 56/73/13 55/72/13
f 61/78/14 62/79/14 63/80/14 64/81/14
f 60/77/15 59/76/15 62/79/15 61/78/15
f 65/82/4 64/81/4 63/80/4 66/83/4
f 58/75/16 57/74/16 65/82/16 66/83/16
f 49/84/6 46/85/6 45/86/6 54/87/6 55/88/6 58/89/6 66/90/6 63/91/6 62/92/6 59/93/6 51/94/6 50/95/6
f 9/10/3 18/23/3 67/96/3 10/11/3
f 17/22/3 20/21/3 68/97/3 69/98/3
f 67/99/5 70/100/5 71/101/5 72/102/5
f 7/103/3 6/104/3 73/105/3 74/106/3
f 20/21/3 7/103/3 74/106/3 68/97/3
f 68/107/6 74/108/6 75/109/6 76/110/6
f 11/111/6 10/112/6 77/113/6 78/114/6
f 1/115/3 4/9/3 11/12/3 70/116/3
f 18/23/3 19/117/3 67/96/3
f 73/118/5 69/119/5 79/120/5 80/121/5
f 19/117/3 1/115/3 70/116/3 67/96/3
f 80/121/3 79/120/3 76/110/3 75/109/3
f 10/112/1 67/99/1 72/102/1 77/113/1
f 70/100/2 11/111/2 78/114/2 71/101/2
f 69/119/2 68/107/2 76/110/2 79/120/2
f 74/108/1 73/118/1 80/121/1 75/109/1
f 71/101/3 78/114/3 77/113/3 72/102/3
f 6/104/3 16/122/3 69/98/3 73/105/3
f 16/122/3 17/22/3 69/98/3
f 81/123/1 82/124/1 83/125/1 84/126/1
f 82/127/4 85/128/4 86/129/4 83/130/4
f 85/131/2 87/132/2 88/133/2 86/134/2
f 87/135/3 81/136/3 84/137/3 88/138/3
f 84/137/5 83/130/5 86/129/5 88/138/5
f 87/135/6 85/139/6 82/140/6 81/136/6
f 89/141/1 90/142/1 91/143/1 92/144/1
f 93/145/2 94/146/2 95/147/2 96/148/2
f 95/147/5 92/144/5 91/143/5 96/148/5
f 93/149/6 90/142/6 89/141/6 94/150/6
f 97/151/1 98/152/1 99/153/1 100/154/1
f 101/155/2 102/156/2 103/157/2 104/158/2
f 103/157/5 100/154/5 99/153/5 104/158/5
f 101/155/6 98/159/6 97/160/6 102/156/6
f 105/161/3 106/162/3 107/163/3 108/164/3
f 109/165/5 110/166/5 108/164/5 107/163/5
f 111/167/6 112/168/6 106/162/6 105/161/6
f 113/169/3 114/170/3 115/171/3 116/172/3
f 117/173/5 118/174/5 116/172/5 115/171/5
f 119/175/6 120/176/6 114/170/6 113/169/6
f 121/177/3 122/178/3 123/179/3 124/180/3
f 125/181/5 126/182/5 124/180/5 123/179/5
f 127/183/6 128/184/6 122/178/6 121/177/6
f 129/185/3 130/186/3 131/187/3 132/188/3
f 133/189/5 134/190/5 132/188/5 131/187/5
f 135/191/6 136/192/6 130/186/6 129/185/6
