# Blender v2.81 (sub 16) OBJ File: 'estrutura.blend'
# www.blender.org
mtllib parede_13.mtl
o parede_13_Cube.009
v -1.288430 0.017805 -1.734182
v -1.288430 0.017805 -1.534182
v -7.891658 0.017805 -1.734182
v -7.891658 4.017805 -1.734182
v -7.891658 0.017805 -1.534182
v -7.891658 4.017805 -1.534182
v -4.591630 4.017805 -1.534182
v -4.591630 4.017805 -1.734182
v -1.288430 1.322003 -1.734182
v -1.288430 1.322003 -1.534182
v -4.591630 1.322003 -1.734182
v -4.591630 1.322003 -1.534182
vt 0.442308 0.375060
vt 0.625000 0.375060
vt 0.625000 0.500000
vt 0.375000 0.500000
vt 0.375000 0.250000
vt 0.442308 0.250000
vt 0.442308 1.000000
vt 0.442308 0.874940
vt 0.749940 0.500000
vt 0.749940 0.750000
vt 0.625000 0.750000
vt 0.625000 0.874940
vt 0.375000 0.750000
vt 0.375000 1.000000
vt 0.375000 0.000000
vt 0.442308 0.000000
vn 0.0000 0.0000 1.0000
vn 0.0000 1.0000 0.0000
vn 1.0000 0.0000 0.0000
vn -0.0000 -0.0000 -1.0000
vn -1.0000 0.0000 0.0000
usemtl paredes
s off
f 12/1/1 7/2/1 6/3/1 5/4/1 2/5/1 10/6/1
f 12/1/2 10/6/2 9/7/2 11/8/2
f 6/3/2 7/9/2 8/10/2 4/11/2
f 7/2/3 12/1/3 11/8/3 8/12/3
f 3/13/4 4/11/4 8/12/4 11/8/4 9/7/4 1/14/4
f 5/4/5 6/3/5 4/11/5 3/13/5
f 1/15/3 9/16/3 10/6/3 2/5/3
