# Blender v2.81 (sub 16) OBJ File: 'estrutura.blend'
# www.blender.org
mtllib parede_12.mtl
o parede_12_Cube.010
v 0.308343 0.017805 6.835731
v 0.308343 4.017805 6.835731
v 0.108343 0.017805 6.835731
v 0.108343 4.017805 6.835731
v 0.308343 0.017805 2.635391
v 0.308343 4.017805 2.635391
v 0.108342 0.017805 2.635391
v 0.108342 4.017805 2.635391
vt 0.375000 0.000000
vt 0.625000 0.000000
vt 0.625000 0.250000
vt 0.375000 0.250000
vt 0.625000 0.500000
vt 0.375000 0.500000
vt 0.625000 0.750000
vt 0.375000 0.750000
vt 0.625000 1.000000
vt 0.375000 1.000000
vt 0.875000 0.500000
vt 0.875000 0.750000
vn 0.0000 0.0000 1.0000
vn -1.0000 0.0000 0.0000
vn 0.0000 0.0000 -1.0000
vn 1.0000 0.0000 0.0000
vn 0.0000 1.0000 0.0000
usemtl paredes
s off
f 1/1/1 2/2/1 4/3/1 3/4/1
f 3/4/2 4/3/2 8/5/2 7/6/2
f 7/6/3 8/5/3 6/7/3 5/8/3
f 5/8/4 6/7/4 2/9/4 1/10/4
f 8/5/5 4/11/5 2/12/5 6/7/5
