# Blender v2.81 (sub 16) OBJ File: 'apartamento.blend'
# www.blender.org
mtllib porta_aberta_2.mtl
o porta_aberta_2_porta_1.001_Cube.003
v 5.328594 0.011419 1.474017
v 5.328594 0.011419 1.274016
v 6.826593 0.011418 1.274016
v 6.826593 0.011418 1.474016
v 5.328594 2.814277 1.474015
v 6.826594 2.814277 1.474015
v 6.826595 2.814277 1.274016
v 5.328595 2.814277 1.274016
vt 0.991350 0.992044
vt 0.007696 0.992044
vt 0.007696 0.992044
vt 0.991349 0.992044
vt 0.991350 0.008209
vt 0.991350 0.008209
vt 0.007696 0.008209
vt 0.007696 0.008209
vn 0.0000 1.0000 0.0000
vn -1.0000 0.0000 -0.0000
vn -0.0000 -0.0000 -1.0000
vn 1.0000 -0.0000 0.0000
vn 0.0000 0.0000 1.0000
usemtl portas.001
s 1
f 5/1/1 6/2/1 7/3/1 8/4/1
f 1/5/2 5/1/2 8/4/2 2/6/2
f 2/6/3 8/4/3 7/3/3 3/7/3
f 3/7/4 7/3/4 6/2/4 4/8/4
f 5/1/5 1/5/5 4/8/5 6/2/5
