# Blender v2.81 (sub 16) OBJ File: 'apartamento.blend'
# www.blender.org
mtllib rack_3.mtl
o armario_Cube.007
v 0.308342 0.078638 11.070938
v 0.308342 1.582436 11.070938
v 0.308342 0.078638 9.922711
v 0.308342 1.582436 9.922711
v 1.108342 0.078638 11.070938
v 1.108342 1.582436 11.070938
v 1.108342 0.078638 9.922711
v 1.108342 1.582436 9.922711
v 0.308342 0.078638 10.496824
v 0.308342 1.582436 10.496824
v 1.108342 0.078638 10.496824
v 1.108342 1.582436 10.496824
v 0.308342 0.830537 11.070938
v 0.308342 0.830537 9.922711
v 1.108342 0.830537 9.922711
v 1.108342 0.830537 11.070938
v 1.108342 0.830537 10.496824
v 0.308342 0.830537 10.496824
vt 0.500000 0.125000
vt 0.625000 0.125000
vt 0.625000 0.250000
vt 0.500000 0.250000
vt 0.625000 0.500000
vt 0.500000 0.500000
vt 0.500000 0.625000
vt 0.625000 0.625000
vt 0.625000 0.750000
vt 0.500000 0.750000
vt 0.625000 1.000000
vt 0.500000 1.000000
vt 0.125000 0.625000
vt 0.375000 0.625000
vt 0.375000 0.750000
vt 0.125000 0.750000
vt 0.875000 0.625000
vt 0.875000 0.750000
vt 0.875000 0.500000
vt 0.125000 0.500000
vt 0.375000 0.500000
vt 0.500000 0.000000
vt 0.625000 0.000000
vt 0.375000 0.000000
vt 0.375000 0.125000
vt 0.375000 1.000000
vt 0.375000 0.250000
vn -1.0000 0.0000 0.0000
vn 0.0000 0.0000 -1.0000
vn 1.0000 0.0000 0.0000
vn 0.0000 0.0000 1.0000
vn 0.0000 -1.0000 0.0000
vn 0.0000 1.0000 0.0000
usemtl acabamento
s off
f 18/1/1 10/2/1 4/3/1 14/4/1
f 14/4/2 4/3/2 8/5/2 15/6/2
f 17/7/3 12/8/3 6/9/3 16/10/3
f 16/10/4 6/9/4 2/11/4 13/12/4
f 9/13/5 11/14/5 5/15/5 1/16/5
f 12/8/6 10/17/6 2/18/6 6/9/6
f 8/5/6 4/19/6 10/17/6 12/8/6
f 3/20/5 7/21/5 11/14/5 9/13/5
f 15/6/3 8/5/3 12/8/3 17/7/3
f 13/22/1 2/23/1 10/2/1 18/1/1
f 1/24/1 13/22/1 18/1/1 9/25/1
f 7/21/3 15/6/3 17/7/3 11/14/3
f 5/15/4 16/10/4 13/12/4 1/26/4
f 11/14/3 17/7/3 16/10/3 5/15/3
f 3/27/2 14/4/2 15/6/2 7/21/2
f 9/25/1 18/1/1 14/4/1 3/27/1
o puxador_3_Cube.026
v 1.108342 0.830537 10.529871
v 1.108342 0.893037 10.529871
v 1.108342 0.830537 10.467371
v 1.108342 0.893037 10.467371
v 1.170842 0.830537 10.529871
v 1.170842 0.893037 10.529871
v 1.170842 0.830537 10.467371
v 1.170842 0.893037 10.467371
vt 0.375000 0.000000
vt 0.625000 0.000000
vt 0.625000 0.250000
vt 0.375000 0.250000
vt 0.625000 0.500000
vt 0.375000 0.500000
vt 0.625000 0.750000
vt 0.375000 0.750000
vt 0.625000 1.000000
vt 0.375000 1.000000
vt 0.125000 0.500000
vt 0.125000 0.750000
vt 0.875000 0.500000
vt 0.875000 0.750000
vn -1.0000 0.0000 0.0000
vn 0.0000 0.0000 -1.0000
vn 1.0000 0.0000 0.0000
vn 0.0000 0.0000 1.0000
vn 0.0000 -1.0000 0.0000
vn 0.0000 1.0000 0.0000
usemtl branco
s off
f 19/28/7 20/29/7 22/30/7 21/31/7
f 21/31/8 22/30/8 26/32/8 25/33/8
f 25/33/9 26/32/9 24/34/9 23/35/9
f 23/35/10 24/34/10 20/36/10 19/37/10
f 21/38/11 25/33/11 23/35/11 19/39/11
f 26/32/12 22/40/12 20/41/12 24/34/12
