# Blender v2.81 (sub 16) OBJ File: 'apartamento.blend'
# www.blender.org
mtllib sofa.mtl
o sofa_sofa_Cube
v -5.795252 0.226573 -0.341709
v -5.795254 0.226573 0.747223
v -6.225385 0.226573 0.747223
v -6.225384 0.226573 -0.341709
v -5.795252 0.875651 -0.600265
v -6.225385 0.929928 -0.660551
v -6.225385 1.222069 -0.660551
v -5.795252 1.221122 -0.660516
v -1.634791 0.226573 -0.341709
v -1.634790 0.929928 -0.341709
v -1.634792 0.929928 0.747224
v -1.634791 0.226573 0.747223
v -6.225385 1.222069 0.747223
v -6.225385 0.929928 0.747223
v -6.213482 0.922650 0.776949
v -6.213482 1.199282 0.776949
v -6.225385 0.929928 -0.341709
v -6.225384 0.226573 -0.660551
v -5.795252 0.226573 -0.660551
v -1.634789 0.929928 -0.660550
v -1.634791 0.226573 -0.660551
v -2.064921 0.226573 -0.660551
v -2.064920 0.875651 -0.600265
v -4.597136 0.875651 -0.600265
v -4.597136 0.226573 -0.660551
v -1.634792 1.222069 0.747224
v -1.647557 1.196595 0.778925
v -1.647557 0.921793 0.778925
v -2.064922 0.226573 0.747223
v -2.064926 0.929928 0.747223
v -2.064925 0.897078 0.774185
v -2.064921 0.259422 0.774184
v -5.795255 0.929928 0.747223
v -5.795253 0.929513 -0.286006
v -5.795253 1.217455 -0.335357
v -5.795255 1.222069 0.747223
v -4.597136 0.929513 -0.286005
v -4.597139 0.929928 0.747223
v -2.064921 0.226573 -0.341709
v -4.597136 0.226573 -0.341709
v -4.597137 0.226573 0.747223
v -1.634790 1.222069 -0.341709
v -1.647555 0.260181 0.778924
v -6.225385 1.222069 -0.341709
v -2.064921 1.217455 -0.335356
v -2.064926 1.222069 0.747223
v -3.263038 1.217455 -0.335356
v -2.064921 1.595979 -0.400232
v -3.263038 1.595979 -0.400232
v -1.634789 1.222069 -0.660550
v -2.064920 1.221122 -0.660516
v -5.807158 1.199282 0.776949
v -4.597136 1.163594 -0.649615
v -2.064921 0.929513 -0.286005
v -3.263038 0.929513 -0.286005
v -5.795253 1.595979 -0.400232
v -4.597136 1.595979 -0.400232
v -4.597136 1.633122 -0.425371
v -5.795253 1.633122 -0.425371
v -2.064920 1.542117 -0.714491
v -5.795252 1.542117 -0.714491
v -4.597136 1.542117 -0.714491
v -3.263036 1.163594 -0.649615
v -3.263036 1.542117 -0.714491
v -4.553022 1.163594 -0.649615
v -4.553022 1.542117 -0.714491
v -5.795252 1.585512 -0.703157
v -3.307146 1.542117 -0.714491
v -3.296437 1.512441 -0.705686
v -3.252327 1.512441 -0.705686
v -4.597136 1.217455 -0.335357
v -4.553035 0.929928 0.747223
v -4.597139 0.929928 0.703922
v -4.553035 0.929928 0.703922
v -3.263036 0.875651 -0.600265
v -4.553022 0.875651 -0.600265
v -3.263038 1.588664 -0.442911
v -3.263038 1.210140 -0.378035
v -3.263037 0.226573 -0.341709
v -3.263037 0.226573 -0.660551
v -4.553023 0.226573 -0.660551
v -4.553023 0.226573 -0.341709
v -3.263039 0.226573 0.747223
v -4.553027 0.226573 0.747223
v -3.263041 0.929928 0.747223
v -4.553024 0.929513 -0.286005
v -4.553024 0.902965 -0.341709
v -4.553035 0.902965 0.747223
v -4.597137 0.259422 0.774184
v -5.795254 0.259422 0.774184
v -3.263041 0.929928 0.703923
v -3.263039 0.226573 0.703922
v -3.307148 0.226573 -0.660551
v -3.307146 0.875651 -0.600265
v -4.553024 1.595979 -0.400232
v -4.597136 1.588664 -0.442911
v -4.553024 1.588664 -0.442911
v -4.597140 0.897078 0.774185
v -3.263038 0.913750 -0.341709
v -3.263041 0.913750 0.747223
v -3.307150 0.929513 -0.286005
v -3.307160 0.929928 0.747223
v -3.307152 0.226573 0.747223
v -3.307148 0.226573 -0.341709
v -4.597136 1.210140 -0.378035
v -4.553024 1.217455 -0.335356
v -3.307150 1.217455 -0.335356
v -3.307150 1.595979 -0.400232
v -3.307146 1.163594 -0.649615
v -4.553024 0.922198 -0.328684
v -4.597136 0.922198 -0.328684
v -4.542315 1.566302 -0.453507
v -4.586427 1.566302 -0.453507
v -2.064920 1.585512 -0.703157
v -2.064921 1.633122 -0.425371
v -4.597136 0.902965 -0.341709
v -4.597139 0.902965 0.747223
v -3.307150 0.913750 -0.341709
v -3.307160 0.913750 0.747223
v -3.307150 0.922198 -0.328684
v -3.263038 0.922198 -0.328684
v -3.307150 1.210140 -0.378035
v -3.307150 1.588664 -0.442911
v -4.553027 0.226573 0.703922
v -4.597137 0.226573 0.703922
v -3.307160 0.929928 0.703923
v -3.307152 0.226573 0.703922
v -4.553024 1.210140 -0.378035
v -4.542313 1.512441 -0.705686
v -4.586426 1.512441 -0.705686
v -3.296440 1.566302 -0.453507
v -3.252328 1.566302 -0.453507
v -5.807156 0.256636 0.776949
v -5.807158 0.922650 0.776949
v -6.213482 0.256636 0.776949
v -2.052161 0.921793 0.778924
v -2.052158 0.260181 0.778924
v -2.052161 1.196595 0.778924
v -5.795256 0.897078 0.774185
v -3.263041 0.897078 0.774185
v -3.263039 0.259422 0.774184
v -3.307151 0.259422 0.774184
v -3.307160 0.897078 0.774185
v -4.553035 0.897078 0.774185
v -4.553027 0.259422 0.774184
v -4.597136 1.585512 -0.703157
v -3.263036 1.585512 -0.703157
v -3.263038 1.633122 -0.425371
v -3.307146 1.585512 -0.703157
v -4.553022 1.585512 -0.703157
v -4.553024 1.633122 -0.425371
v -3.307150 1.633122 -0.425371
v -6.076301 0.051934 0.632015
v -6.119815 0.256115 0.675530
v -6.119815 0.256115 0.471348
v -6.076301 0.051934 0.514863
v -5.915633 0.256115 0.471348
v -5.959147 0.051934 0.514863
v -5.915633 0.256115 0.675530
v -5.959147 0.051934 0.632015
v -6.076301 0.051934 -0.434330
v -6.119815 0.256115 -0.390816
v -6.119815 0.256115 -0.594997
v -6.076301 0.051934 -0.551483
v -5.915633 0.256115 -0.594997
v -5.959147 0.051934 -0.551483
v -5.915633 0.256115 -0.390816
v -5.959147 0.051934 -0.434330
v -1.897305 0.051934 0.632015
v -1.940820 0.256115 0.675530
v -1.940820 0.256115 0.471348
v -1.897305 0.051934 0.514863
v -1.736638 0.256115 0.471348
v -1.780152 0.051934 0.514863
v -1.736638 0.256115 0.675530
v -1.780152 0.051934 0.632015
v -1.897305 0.051934 -0.434330
v -1.940820 0.256115 -0.390816
v -1.940820 0.256115 -0.594997
v -1.897305 0.051934 -0.551483
v -1.736638 0.256115 -0.594997
v -1.780152 0.051934 -0.551483
v -1.736638 0.256115 -0.390816
v -1.780152 0.051934 -0.434330
v -3.990043 0.051934 0.632015
v -4.033556 0.256115 0.675530
v -4.033556 0.256115 0.471348
v -3.990043 0.051934 0.514863
v -3.829376 0.256115 0.471348
v -3.872889 0.051934 0.514863
v -3.829376 0.256115 0.675530
v -3.872889 0.051934 0.632015
v -3.990043 0.051934 -0.434330
v -4.033556 0.256115 -0.390816
v -4.033556 0.256115 -0.594997
v -3.990043 0.051934 -0.551483
v -3.829376 0.256115 -0.594997
v -3.872889 0.051934 -0.551483
v -3.829376 0.256115 -0.390816
v -3.872889 0.051934 -0.434330
vn 0.0000 -1.0000 -0.0000
vn 0.0636 -0.0939 -0.9935
vn 1.0000 -0.0000 0.0000
vn -0.9283 -0.0000 0.3717
vn -1.0000 -0.0000 -0.0000
vn 0.0726 0.0444 -0.9964
vn -0.0726 0.0444 -0.9964
vn 0.0000 0.0925 -0.9957
vn 0.9276 0.0000 0.3735
vn 0.0000 1.0000 -0.0004
vn 0.0059 1.0000 0.0017
vn 0.0059 1.0000 0.0018
vn 0.0054 1.0000 -0.0021
vn -0.0059 1.0000 0.0018
vn -0.0059 1.0000 0.0017
vn -0.0054 1.0000 -0.0021
vn 0.0000 0.1689 0.9856
vn -0.0064 1.0000 0.0057
vn 0.0064 1.0000 0.0057
vn -0.0636 -0.0939 -0.9935
vn 0.0000 0.7936 0.6084
vn 0.0002 -0.1697 -0.9855
vn 0.0004 -0.1705 -0.9854
vn 0.0004 -0.1690 -0.9856
vn 0.0002 -0.1690 -0.9856
vn 0.0000 0.5605 0.8282
vn 0.0005 -0.1675 -0.9859
vn 0.0002 -0.1682 -0.9857
vn -0.0004 -0.1690 -0.9856
vn -0.0002 -0.1690 -0.9856
vn -0.0002 -0.1682 -0.9858
vn -0.0005 -0.1675 -0.9859
vn 0.0000 -0.1689 -0.9856
vn 0.0000 0.2845 0.9587
vn -0.0004 -0.1705 -0.9854
vn -0.0002 -0.1697 -0.9855
vn 0.0000 -0.6344 0.7730
vn 0.0000 -0.9856 0.1689
vn 0.0000 0.9856 -0.1689
vn 0.0000 0.8736 -0.4866
vn 0.0000 1.0000 0.0000
vn 0.0000 -0.9027 0.4302
vn 0.0000 0.0000 -1.0000
vn 0.0000 -0.9622 0.2723
vn 0.0000 -0.0000 1.0000
vn 0.0000 0.9779 -0.2089
vn 0.9192 0.3868 -0.0736
vn -0.9192 -0.3868 0.0736
vn 0.9283 0.0000 0.3717
vn 0.0000 -0.7031 0.7111
vn -0.9276 -0.0000 0.3735
vn 0.0000 -0.6862 0.7274
vn -0.0000 0.7795 0.6264
vn 0.0000 0.6344 0.7730
vn 0.0000 0.2527 -0.9675
vn -0.9780 -0.2084 -0.0000
vn 0.0000 -0.2084 -0.9780
vn 0.9780 -0.2084 -0.0000
vn 0.0000 -0.2084 0.9780
usemtl vermelho
s 1
f 1//1 2//1 3//1 4//1
f 5//2 6//2 7//2 8//2
f 9//3 10//3 11//3 12//3
f 13//4 14//4 15//4 16//4
f 4//5 17//5 6//5 18//5
f 5//6 19//6 18//6 6//6
f 20//7 21//7 22//7 23//7
f 24//8 25//8 19//8 5//8
f 11//9 26//9 27//9 28//9
f 29//3 30//3 31//3 32//3
f 33//3 34//3 35//3 36//3
f 37//10 34//10 33//10 38//10
f 9//1 12//1 29//1 39//1
f 40//1 41//1 2//1 1//1
f 25//1 40//1 1//1 19//1
f 21//1 9//1 39//1 22//1
f 11//3 10//3 42//3 26//3
f 12//9 11//9 28//9 43//9
f 3//5 14//5 17//5 4//5
f 21//3 20//3 10//3 9//3
f 6//5 17//5 44//5 7//5
f 19//1 1//1 4//1 18//1
f 35//11 44//12 13//13 36//13
f 42//14 45//15 46//16 26//16
f 47//17 45//17 48//17 49//17
f 50//18 51//18 45//15 42//14
f 8//19 7//19 44//12 35//11
f 20//20 23//20 51//20 50//20
f 10//3 20//3 50//3 42//3
f 36//21 13//21 16//21 52//21
f 24//22 5//23 8//24 53//25
f 54//5 30//5 46//5 45//5
f 17//5 14//5 13//5 44//5
f 55//17 54//17 45//17 47//17
f 56//26 57//26 58//26 59//26
f 45//3 51//3 60//3 48//3
f 53//25 8//24 61//27 62//28
f 8//5 35//5 56//5 61//5
f 51//29 63//30 64//31 60//32
f 65//33 53//25 62//28 66//33
f 61//5 56//5 59//5 67//5
f 64//34 68//34 69//34 70//34
f 34//17 37//17 71//17 35//17
f 72//1 38//1 73//1 74//1
f 23//35 75//36 63//30 51//29
f 76//33 24//22 53//25 65//33
f 35//17 71//17 57//17 56//17
f 47//5 49//5 77//5 78//5
f 22//1 39//1 79//1 80//1
f 81//1 82//1 40//1 25//1
f 39//1 29//1 83//1 79//1
f 82//1 84//1 41//1 40//1
f 54//10 55//10 85//10 30//10
f 72//5 86//5 87//5 88//5
f 2//37 41//37 89//37 90//37
f 83//5 85//5 91//5 92//5
f 23//8 22//8 80//8 75//8
f 76//8 81//8 25//8 24//8
f 75//8 80//8 93//8 94//8
f 94//8 93//8 81//8 76//8
f 95//38 57//38 96//38 97//38
f 41//3 38//3 98//3 89//3
f 85//5 55//5 99//5 100//5
f 101//10 86//10 72//10 102//10
f 79//1 83//1 103//1 104//1
f 104//1 103//1 84//1 82//1
f 80//1 79//1 104//1 93//1
f 93//1 104//1 82//1 81//1
f 57//3 71//3 105//3 96//3
f 106//17 107//17 108//17 95//17
f 75//36 94//33 109//33 63//30
f 94//33 76//33 65//33 109//33
f 37//39 86//39 110//39 111//39
f 86//17 101//17 107//17 106//17
f 57//40 95//40 112//40 113//40
f 48//3 60//3 114//3 115//3
f 63//30 109//33 68//33 64//31
f 109//33 65//33 66//33 68//33
f 87//41 116//41 117//41 88//41
f 86//42 37//42 116//42 87//42
f 37//3 38//3 117//3 116//3
f 38//43 72//43 88//43 117//43
f 99//41 118//41 119//41 100//41
f 102//43 85//43 100//43 119//43
f 55//44 101//44 118//44 99//44
f 101//3 102//3 119//3 118//3
f 120//17 121//17 78//17 122//17
f 122//17 78//17 77//17 123//17
f 124//45 74//45 73//45 125//45
f 92//45 91//45 126//45 127//45
f 105//17 128//17 97//17 96//17
f 111//17 110//17 128//17 105//17
f 86//5 106//5 128//5 110//5
f 38//3 41//3 125//3 73//3
f 107//3 101//3 120//3 122//3
f 85//1 102//1 126//1 91//1
f 71//3 37//3 111//3 105//3
f 102//3 103//3 127//3 126//3
f 55//5 47//5 78//5 121//5
f 41//41 84//41 124//41 125//41
f 106//5 95//5 97//5 128//5
f 101//39 55//39 121//39 120//39
f 84//5 72//5 74//5 124//5
f 49//38 108//38 123//38 77//38
f 108//3 107//3 122//3 123//3
f 103//41 83//41 92//41 127//41
f 129//46 130//46 113//46 112//46
f 70//46 69//46 131//46 132//46
f 62//47 57//47 113//47 130//47
f 68//47 108//47 131//47 69//47
f 108//40 49//40 132//40 131//40
f 66//34 62//34 130//34 129//34
f 95//48 66//48 129//48 112//48
f 49//48 64//48 70//48 132//48
f 133//45 134//45 15//45 135//45
f 15//45 134//45 52//45 16//45
f 33//49 36//49 52//49 134//49
f 3//50 2//50 133//50 135//50
f 2//49 33//49 134//49 133//49
f 14//4 3//4 135//4 15//4
f 43//45 28//45 136//45 137//45
f 136//45 28//45 27//45 138//45
f 30//51 29//51 137//51 136//51
f 29//52 12//52 43//52 137//52
f 46//51 30//51 136//51 138//51
f 26//53 46//53 138//53 27//53
f 89//45 98//45 139//45 90//45
f 32//45 31//45 140//45 141//45
f 142//45 143//45 144//45 145//45
f 103//3 102//3 143//3 142//3
f 38//54 33//54 139//54 98//54
f 33//5 2//5 90//5 139//5
f 72//5 84//5 145//5 144//5
f 83//37 29//37 32//37 141//37
f 85//5 83//5 141//5 140//5
f 84//37 103//37 142//37 145//37
f 30//54 85//54 140//54 31//54
f 102//54 72//54 144//54 143//54
f 146//39 67//39 59//39 58//39
f 114//39 147//39 148//39 115//39
f 149//39 150//39 151//39 152//39
f 108//3 68//3 149//3 152//3
f 95//26 108//26 152//26 151//26
f 64//5 49//5 148//5 147//5
f 49//26 48//26 115//26 148//26
f 66//5 95//5 151//5 150//5
f 62//55 61//55 67//55 146//55
f 60//55 64//55 147//55 114//55
f 68//55 66//55 150//55 149//55
f 57//3 62//3 146//3 58//3
f 153//56 154//56 155//56 156//56
f 156//57 155//57 157//57 158//57
f 158//58 157//58 159//58 160//58
f 160//59 159//59 154//59 153//59
f 156//1 158//1 160//1 153//1
f 157//41 155//41 154//41 159//41
f 161//56 162//56 163//56 164//56
f 164//57 163//57 165//57 166//57
f 166//58 165//58 167//58 168//58
f 168//59 167//59 162//59 161//59
f 164//1 166//1 168//1 161//1
f 165//41 163//41 162//41 167//41
f 169//56 170//56 171//56 172//56
f 172//57 171//57 173//57 174//57
f 174//58 173//58 175//58 176//58
f 176//59 175//59 170//59 169//59
f 172//1 174//1 176//1 169//1
f 173//41 171//41 170//41 175//41
f 177//56 178//56 179//56 180//56
f 180//57 179//57 181//57 182//57
f 182//58 181//58 183//58 184//58
f 184//59 183//59 178//59 177//59
f 180//1 182//1 184//1 177//1
f 181//41 179//41 178//41 183//41
f 185//56 186//56 187//56 188//56
f 188//57 187//57 189//57 190//57
f 190//58 189//58 191//58 192//58
f 192//59 191//59 186//59 185//59
f 188//1 190//1 192//1 185//1
f 189//41 187//41 186//41 191//41
f 193//56 194//56 195//56 196//56
f 196//57 195//57 197//57 198//57
f 198//58 197//58 199//58 200//58
f 200//59 199//59 194//59 193//59
f 196//1 198//1 200//1 193//1
f 197//41 195//41 194//41 199//41
